<svg id="Logo-Zium" xmlns="http://www.w3.org/2000/svg" width="100" height="85" viewBox="0 0 100 85">
  <ellipse id="Ellipse_250" data-name="Ellipse 250" cx="15.2" cy="14.858" rx="15.2" ry="14.858" transform="translate(34.801 0)" fill="#e5dbc3"/>
  <path id="Tracé_23731" data-name="Tracé 23731" d="M105.99,68.611c0-.251-.06-.5-.08-.753-.02-.463-.04-.714-.04-.714h-.02a7.814,7.814,0,0,0-15.26.174c-6.96,32.864-34.6,31.551-34.6,31.551s-27.639,1.313-34.579-31.551a7.684,7.684,0,0,0-7.64-6.217,7.706,7.706,0,0,0-7.62,6.044h-.04s-.02.251-.04.714c-.02.251-.08.5-.08.753h.04c-.22,5.657-.06,26.4,13.28,36.088,15.54,11.276,17.08,11.894,17.08,11.894s8.46,6.97,8.38,12.956c-.06,4.866,2.14,11.141,11.2,11.643,9.06-.5,11.26-6.777,11.2-11.643-.08-5.986,8.38-12.956,8.38-12.956s1.54-.618,17.08-11.894c13.34-9.693,13.5-30.431,13.28-36.088Z" transform="translate(-5.99 -56.193)" fill="#e5dbc3"/>
</svg>
