<!DOCTYPE svg PUBLIC "-//W3C//DTD SVG 1.1//EN" "http://www.w3.org/Graphics/SVG/1.1/DTD/svg11.dtd">
<!-- Uploaded to: SVG Repo, www.svgrepo.com, Transformed by: SVG Repo Mixer Tools -->
<svg width="800px" height="800px" viewBox="0 0 28 28" fill="none" xmlns="http://www.w3.org/2000/svg">
<g id="SVGRepo_bgCarrier" stroke-width="0"/>
<g id="SVGRepo_tracerCarrier" stroke-linecap="round" stroke-linejoin="round"/>
<g id="SVGRepo_iconCarrier">
<path d="M2.99812 13.0144C2.44673 13.0145 1.99978 13.4734 1.99978 14.0394C1.99978 14.6056 2.44688 15.0646 2.99837 15.0645L22.5613 15.0619L13.6427 24.2181C13.2522 24.619 13.2522 25.269 13.6427 25.6699L13.6713 25.6993C14.0618 26.1002 14.695 26.1002 15.0855 25.6993L25.6908 14.8117C25.8091 14.6901 25.8916 14.5459 25.9382 14.3924C25.9782 14.2816 26 14.1617 26 14.0366C26 13.9252 25.9827 13.818 25.9507 13.7176C25.9136 13.525 25.8223 13.3413 25.677 13.192L15.0681 2.3007C14.6776 1.89977 14.0444 1.89977 13.6539 2.3007L13.6253 2.33009C13.2348 2.73099 13.2348 3.38103 13.6253 3.78197L22.6157 13.0118L2.99812 13.0144Z" fill="#ffffff"/>
</g>
</svg>