<svg id="shopping-cart_full_" data-name="shopping-cart (full)" xmlns="http://www.w3.org/2000/svg" width="30" height="30" viewBox="0 0 30 30">
  <circle id="Ellipse_270" data-name="Ellipse 270" cx="2.502" cy="2.502" r="2.502" transform="translate(6.246 24.996)"/>
  <circle id="Ellipse_271" data-name="Ellipse 271" cx="2.502" cy="2.502" r="2.502" transform="translate(18.75 24.996)"/>
  <circle id="Ellipse_272" data-name="Ellipse 272" cx="5.859" cy="5.859" r="5.859" transform="translate(18.281)" fill="#312219"/>
  <path id="Tracé_23736" data-name="Tracé 23736" d="M19.166,10.834A7.05,7.05,0,0,1,17.432,3.75H5.3L5.25,3.311A3.749,3.749,0,0,0,1.529,0H1.254a1.248,1.248,0,1,0-.006,2.5h.275A1.253,1.253,0,0,1,2.766,3.6L4.488,18.223a6.247,6.247,0,0,0,6.205,5.52H23.748a1.248,1.248,0,0,0,0-2.5H10.693a3.76,3.76,0,0,1-3.527-2.5h14.9a6.251,6.251,0,0,0,6.152-5.139l.422-2.35a7.029,7.029,0,0,1-9.475-.422Z"/>
</svg>
